<?xml version="1.0" encoding="iso-8859-1"?>
<!-- Generator: Adobe Illustrator 18.1.1, SVG Export Plug-In . SVG Version: 6.00 Build 0)  -->
<svg version="1.1" id="Capa_1" xmlns="http://www.w3.org/2000/svg" xmlns:xlink="http://www.w3.org/1999/xlink" x="0px" y="0px"
	 viewBox="0 0 307.432 307.432" style="enable-background:new 0 0 307.432 307.432;" xml:space="preserve">
<g>
	<g>
		<g>
			<path style="fill:#010002;" d="M153.708,0C68.951,0,0,68.951,0,153.708c0,84.762,68.951,153.724,153.708,153.724
				c84.762,0,153.724-68.962,153.724-153.724C307.432,68.951,238.47,0,153.708,0z M153.708,289.244
				c-74.727,0-135.531-60.798-135.531-135.536c0-74.727,60.803-135.531,135.531-135.531c74.738,0,135.536,60.803,135.536,135.531
				C289.244,228.446,228.446,289.244,153.708,289.244z"/>
		</g>
		<g>
			<g>
				<g>
					<path style="fill:#010002;" d="M151.445,61.276l-43.806,171.967c-0.283,1.12,0.277,2.268,1.343,2.73
						c1.055,0.457,2.29,0.092,2.921-0.892l42.349-66.019l41.283,66.008c0.441,0.702,1.213,1.099,1.991,1.099
						c0.305,0,0.609-0.06,0.919-0.179c1.071-0.462,1.637-1.626,1.36-2.747L155.998,61.276
						C155.465,59.193,151.962,59.193,151.445,61.276z M156.259,163.428c-0.43-0.674-1.169-1.088-1.974-1.088h-0.005
						c-0.805,0-1.556,0.397-1.985,1.071l-36.512,56.92l37.927-148.949l37.801,148.416L156.259,163.428z"/>
				</g>
			</g>
			<g>
				<g>
					<path style="fill:#010002;" d="M197.52,236.909c-1.055,0-2.072-0.555-2.622-1.441l-40.657-65.024l-41.718,65.035
						c-0.794,1.246-2.464,1.762-3.829,1.186c-1.403-0.615-2.143-2.132-1.762-3.601l43.801-171.972
						c0.315-1.256,1.518-2.116,2.986-2.116c1.463,0,2.676,0.848,2.997,2.116l43.79,171.972c0.381,1.479-0.364,3.002-1.773,3.601
						C198.33,236.828,197.933,236.909,197.52,236.909z M154.246,167.686l0.631,0.995l41.277,66.003
						c0.397,0.647,1.246,0.925,2.007,0.615c0.718-0.31,1.115-1.104,0.919-1.871L155.28,61.456c-0.19-0.745-0.957-1.012-1.566-1.012
						c-0.609,0-1.371,0.267-1.561,1.012l-43.795,171.972c-0.207,0.767,0.185,1.561,0.908,1.871c0.696,0.277,1.588,0.033,2.002-0.615
						L154.246,167.686z M113.943,224.557l39.765-156.172l39.705,155.818l-37.78-60.379c-0.604-0.968-2.138-0.919-2.714-0.016
						L113.943,224.557z"/>
				</g>
			</g>
		</g>
	</g>
</g>
<g>
</g>
<g>
</g>
<g>
</g>
<g>
</g>
<g>
</g>
<g>
</g>
<g>
</g>
<g>
</g>
<g>
</g>
<g>
</g>
<g>
</g>
<g>
</g>
<g>
</g>
<g>
</g>
<g>
</g>
</svg>
